<?xml version="1.0" encoding="utf-8"?>
<!-- Generator: Adobe Illustrator 23.0.1, SVG Export Plug-In . SVG Version: 6.00 Build 0)  -->
<svg version="1.1" id="Layer_1" xmlns="http://www.w3.org/2000/svg" xmlns:xlink="http://www.w3.org/1999/xlink" x="0px" y="0px"
	 viewBox="0 0 200 60" style="enable-background:new 0 0 200 60;" xml:space="preserve">
<style type="text/css">
	.st0{fill:url(#SVGID_1_);}
	.st1{fill:#57233A;}
	.st2{fill:#AE4A52;}
	.st3{font-family:'Bauhaus93';}
	.st4{font-size:44.3655px;}
	.st5{font-size:22.8716px;}
	.st6{font-size:21.3364px;}
	.st7{font-size:20.1002px;}
	.st8{fill:#B88D72;}
	.st9{fill:url(#SVGID_2_);}
</style>
<g>
	<linearGradient id="SVGID_1_" gradientUnits="userSpaceOnUse" x1="60.9561" y1="33.5834" x2="68.0635" y2="46.287">
		<stop  offset="0" style="stop-color:#AE4A52"/>
		<stop  offset="0.8264" style="stop-color:#57233A"/>
	</linearGradient>
	<path class="st0" d="M68.6,47L68.6,47c-1,0.6-2.2,0.2-2.8-0.7l-7.3-12.7c-0.6-1-0.2-2.2,0.7-2.8v0c1-0.6,2.2-0.2,2.8,0.7l7.3,12.7
		C69.9,45.2,69.6,46.4,68.6,47z"/>
	<path class="st1" d="M54.3,7.9v47.6h-6.2V15.9c1.8-0.9,3.1-3.1,3.1-5.8c0-0.8-0.1-1.5-0.3-2.2H54.3z"/>
	<path class="st2" d="M52.5,7.9v47.6h-6.2V16.3c0.1,0,0.1,0,0.2,0c0.6,0,1.1-0.1,1.7-0.4c1.8-0.9,3.1-3.1,3.1-5.8
		c0-0.8-0.1-1.5-0.3-2.2H52.5z"/>
	<text transform="matrix(0.7558 0 0 1 73.0612 48.1178)" class="st2 st3 st4">E</text>
	<text transform="matrix(1.0726 0 0 1 90.985 33.2477)" class="st2 st3 st5">A</text>
	<text transform="matrix(1.0726 0 0 1 56.4987 32.5475)" class="st2 st3 st6">D</text>
	<text transform="matrix(1.2205 0 0 1 90.985 48.8112)" class="st2 st3 st7">CORD</text>
	<path class="st8" d="M127.5,1.8c-6.1,0-11,4.9-11,11c0,3.3,1.5,6.3,3.8,8.3c0.2,0.6,0.5,1.2,0.8,1.7c0.1,0.4,0.2,0.8,0.3,1.2
		c0.1,0.4,0.3,0.8,0.5,1.1c1.1,2,3.2,3.3,5.7,3.3c2.7,0,4.9-1.6,6-3.8c0.3-0.5,0.4-1.1,0.5-1.8c0.4-0.6,0.7-1.3,0.9-2.1
		c2.1-2,3.4-4.8,3.4-7.9C138.5,6.7,133.6,1.8,127.5,1.8z M133.6,23.6c0-0.1,0.1-0.2,0.1-0.4L133.6,23.6
		C133.6,23.5,133.6,23.6,133.6,23.6z"/>
	<path class="st1" d="M133.7,24.5v5.3c0,1-1,1.8-2.2,1.8h-7.3c-1.2,0-2.2-0.8-2.2-1.8v-4.7c1.1,2,3.2,3.3,5.7,3.3
		C130.4,28.4,132.6,26.8,133.7,24.5z"/>
	<linearGradient id="SVGID_2_" gradientUnits="userSpaceOnUse" x1="46.2416" y1="13.9324" x2="46.2416" y2="7.0158">
		<stop  offset="0" style="stop-color:#AE4A52"/>
		<stop  offset="0.8264" style="stop-color:#57233A"/>
	</linearGradient>
	<circle class="st9" cx="46.2" cy="10.5" r="3.5"/>
</g>
</svg>
